<svg width="32.143" height="53.571" viewBox="0 0 32.143 53.571" xmlns="http://www.w3.org/2000/svg"><g id="svgGroup" stroke-linecap="round" fill-rule="evenodd" font-size="9pt" stroke="#576578" stroke-width="0.25mm" fill="#64748b" style="stroke:#576578;stroke-width:0.25mm;fill:#64748b"><path d="M 5.357 5.357 L 5.357 10.714 L 5.357 16.071 L 5.357 21.429 L 5.357 26.786 L 5.357 32.143 L 5.357 37.5 L 5.357 42.857 L 5.357 48.214 L 10.714 48.214 L 10.714 53.571 L 5.357 53.571 L 5.357 48.214 L 5.357 53.571 L 0 53.571 L 0 48.214 L 5.357 48.214 L 5.357 42.857 L 5.357 48.214 L 0 48.214 L 0 42.857 L 5.357 42.857 L 5.357 37.5 L 5.357 42.857 L 0 42.857 L 0 37.5 L 5.357 37.5 L 5.357 32.143 L 5.357 37.5 L 0 37.5 L 0 32.143 L 5.357 32.143 L 5.357 26.786 L 5.357 32.143 L 0 32.143 L 0 26.786 L 5.357 26.786 L 5.357 21.429 L 5.357 26.786 L 0 26.786 L 0 21.429 L 5.357 21.429 L 5.357 16.071 L 5.357 21.429 L 0 21.429 L 0 16.071 L 5.357 16.071 L 5.357 10.714 L 5.357 16.071 L 0 16.071 L 0 10.714 L 5.357 10.714 L 5.357 5.357 L 5.357 10.714 L 0 10.714 L 0 5.357 L 5.357 5.357 L 10.714 5.357 L 10.714 10.714 L 5.357 10.714 M 26.786 37.5 L 26.786 32.143 L 21.429 37.5 L 21.429 42.857 L 26.786 42.857 L 26.786 37.5 L 26.786 42.857 L 21.429 42.857 L 21.429 48.214 L 26.786 48.214 L 26.786 42.857 L 26.786 48.214 L 21.429 48.214 L 21.429 53.571 L 26.786 53.571 L 26.786 48.214 L 26.786 53.571 L 32.143 53.571 L 32.143 48.214 L 26.786 48.214 L 26.786 42.857 L 26.786 37.5 Z M 26.786 10.714 L 26.786 5.357 L 26.786 0 L 21.429 0 L 21.429 5.357 L 26.786 5.357 L 26.786 0 L 32.143 0 L 32.143 5.357 L 26.786 5.357 Z M 5.357 5.357 L 5.357 0 L 10.714 0 L 10.714 5.357 L 5.357 5.357 Z M 5.357 0 L 0 0 L 0 5.357 L 5.357 5.357 L 5.357 0 Z M 21.429 21.429 L 21.429 16.071 L 16.071 16.071 L 16.071 21.429 L 21.429 21.429 Z M 21.429 16.071 L 21.429 21.429 L 26.786 21.429 L 26.786 16.071 L 21.429 16.071 Z M 16.071 32.143 L 16.071 26.786 L 21.429 26.786 L 21.429 32.143 L 16.071 32.143 Z M 21.429 32.143 L 16.071 32.143 L 16.071 37.5 L 21.429 37.5 L 21.429 32.143 Z M 21.429 37.5 L 21.429 32.143 L 26.786 32.143 L 26.786 37.5 L 21.429 37.5 Z M 26.786 26.786 L 21.429 26.786 L 21.429 32.143 L 26.786 32.143 L 26.786 26.786 Z M 16.071 26.786 L 10.714 26.786 L 10.714 32.143 L 16.071 32.143 L 16.071 26.786 Z M 21.429 26.786 L 21.429 21.429 L 16.071 21.429 L 16.071 26.786 L 21.429 26.786 Z M 26.786 16.071 L 26.786 10.714 L 21.429 10.714 L 21.429 16.071 L 26.786 16.071 Z M 21.429 10.714 L 21.429 5.357 L 26.786 5.357 L 26.786 10.714 L 21.429 10.714 Z M 26.786 37.5 L 26.786 32.143 L 32.143 32.143 L 32.143 37.5 L 26.786 37.5 Z M 16.071 21.429 L 10.714 21.429 L 10.714 26.786 L 16.071 26.786 L 16.071 21.429 Z M 26.786 5.357 L 32.143 5.357 L 32.143 10.714 L 26.786 10.714 L 26.786 5.357 Z M 32.143 10.714 L 26.786 10.714 L 26.786 16.071 L 32.143 16.071 L 32.143 10.714 Z M 5.357 16.071 L 10.714 16.071 L 10.714 21.429 L 5.357 21.429 M 5.357 32.143 L 10.714 32.143 L 10.714 37.5 L 5.357 37.5 M 5.357 26.786 L 10.714 26.786 L 10.714 32.143 L 5.357 32.143 M 5.357 42.857 L 10.714 42.857 L 10.714 48.214 L 5.357 48.214 M 5.357 37.5 L 10.714 37.5 L 10.714 42.857 L 5.357 42.857 M 5.357 21.429 L 10.714 21.429 L 10.714 26.786 L 5.357 26.786 M 10.714 5.357 L 10.714 10.714 L 10.714 16.071 L 5.357 16.071 M 26.786 42.857 L 32.143 42.857 L 32.143 48.214 L 26.786 48.214 M 26.786 37.5 L 32.143 37.5 L 32.143 42.857 L 26.786 42.857" vector-effect="non-scaling-stroke"/></g></svg>